<?xml version="1.0" encoding="utf-8"?>
<!-- Generator: Adobe Illustrator 19.1.1, SVG Export Plug-In . SVG Version: 6.00 Build 0)  -->
<svg version="1.1" id="Layer_1" xmlns="http://www.w3.org/2000/svg" xmlns:xlink="http://www.w3.org/1999/xlink" x="0px" y="0px"
	 viewBox="0 0 87 58.8" style="enable-background:new 0 0 87 58.8;" xml:space="preserve">
<style type="text/css">
	.st0{fill:none;}
	.st1{fill:#1B1464;}
	.st2{fill:#F7931E;}
</style>
<g>
	<rect x="-0.3" y="-13.3" class="st0" width="233.2" height="108"/>
	<path class="st1" d="M14.4,32.3H9.2v15.3H5.9V32.3H0.6v-2.9h13.8V32.3z"/>
	<path class="st1" d="M24.9,33.9v2.9h-0.6c-1.3,0-2.6,0.5-3.9,1.5v9.3h-3.2V34.2h3.2v1.3c1.2-1.1,2.5-1.6,3.9-1.6H24.9z"/>
	<path class="st1" d="M27.6,28.2h3.2v3.6h-3.2V28.2z M27.6,34.2h3.2v13.4h-3.2V34.2z"/>
	<path class="st1" d="M44.7,34.6c0.9,0.5,1.6,1.3,2.1,2.4c0.5,1.1,0.8,2.4,0.8,3.9s-0.3,2.9-0.8,3.9c-0.5,1.1-1.2,1.9-2.1,2.4
		c-0.9,0.5-2,0.8-3.2,0.8c-1.3,0-2.5-0.5-3.7-1.5v6.7h-3.2v-19h3.2v1.1c1.2-1,2.4-1.4,3.7-1.4C42.8,33.8,43.8,34.1,44.7,34.6z
		 M43.4,44.1c0.6-0.7,0.8-1.8,0.8-3.1s-0.3-2.4-0.8-3.1c-0.6-0.7-1.4-1.1-2.5-1.1c-1,0-2.1,0.4-3.1,1.2v6c1,0.8,2.1,1.2,3.1,1.2
		C42.1,45.1,42.9,44.8,43.4,44.1z"/>
	<path class="st1" d="M66.5,28.2h3.2v3.6h-3.2V28.2z M66.5,34.2h3.2v13.4h-3.2V34.2z"/>
	<path class="st1" d="M84.5,35.2c0.8,0.9,1.3,2.3,1.3,4.3v8.1h-3.2v-8.1c0-0.9-0.2-1.6-0.6-2.1c-0.4-0.4-1-0.7-2-0.7
		c-1.1,0-2.2,0.5-3.3,1.4v9.4h-3.2V34.2h3.2v1.2c1.2-1,2.5-1.5,3.9-1.5C82.4,33.9,83.7,34.4,84.5,35.2z"/>
</g>
<g>
	<rect x="48.2" y="30.7" class="st0" width="44.4" height="32.6"/>
	<path class="st2" d="M60.2,38c0.9,0.5,1.6,1.3,2.1,2.4c0.5,1.1,0.8,2.4,0.8,3.9c0,1.6-0.3,2.9-0.8,3.9c-0.5,1.1-1.2,1.9-2.1,2.4
		c-0.9,0.5-2,0.8-3.2,0.8c-1.3,0-2.5-0.5-3.7-1.5v6.7h-3.2v-19h3.2v1.1c1.2-1,2.4-1.4,3.7-1.4C58.2,37.2,59.3,37.4,60.2,38z
		 M58.9,47.4c0.6-0.7,0.8-1.8,0.8-3.1c0-1.4-0.3-2.4-0.8-3.1S57.6,40,56.5,40c-1,0-2.1,0.4-3.1,1.2v6c1,0.8,2.1,1.2,3.1,1.2
		C57.6,48.5,58.4,48.1,58.9,47.4z"/>
</g>
<path class="st1" d="M58.7,3.6c0.5-1.8,2.4-2.7,4.2-2.2c1.8,0.5,2.7,2.4,2.2,4.2c-0.5,1.8-2.4,2.7-4.2,2.2
	C59.1,7.2,58.1,5.3,58.7,3.6L58.7,3.6z M58.7,3.6"/>
<path class="st1" d="M38.7,15.8c-2-2.1-5.3,0.9-3.3,3c3.7,4.1,8.1,3.3,11.9,0.7c0.1,0.1,0.2,0.2,0.3,0.2c2,1.5,3.6,3.3,4.9,5.4
	c0.1,0.1,0.2,0.3,0.3,0.4c0.4,2.3,0.7,4.6,1.1,7c0.4,2.6,4.5,2,4.1-0.6c-0.4-2.4-0.8-4.9-1.1-7.3c-0.1-0.5-0.3-0.9-0.6-1.1
	c0-0.1-0.1-0.2-0.1-0.2c-1.1-1.8-2.4-3.4-3.9-4.9c1.9-2,3.9-3.9,5.9-5.7c3.8,2.6,8.3,2.3,12.3-0.8c2.1-1.6-0.7-4.6-2.8-3
	c-3.2,2.4-6.3,1.9-8.9-1c-0.2-0.2-0.4-0.3-0.6-0.5c-0.1-0.1-0.1-0.1-0.2-0.2c-0.1-0.2-0.2-0.4-0.4-0.6c-4.2-4.7-9.7-5-14.7-1.3
	c-2.1,1.6,0.7,4.6,2.8,3c2.6-2,5.1-2,7.3-0.4c-2,1.8-3.9,3.7-5.7,5.6c-0.2,0.2-0.4,0.5-0.5,0.7C44.3,16.5,41.4,18.8,38.7,15.8
	L38.7,15.8z M38.7,15.8"/>
<rect x="35.3" y="7.6" transform="matrix(0.917 0.3989 -0.3989 0.917 7.6105 -15.191)" class="st2" width="10" height="6.1"/>
<g>
</g>
<g>
</g>
<g>
</g>
<g>
</g>
<g>
</g>
<g>
</g>
<g>
</g>
<g>
</g>
<g>
</g>
<g>
</g>
<g>
</g>
<g>
</g>
<g>
</g>
<g>
</g>
<g>
</g>
</svg>
